<svg width="18" height="18" viewBox="0 0 18 18" fill="none" xmlns="http://www.w3.org/2000/svg">
<path d="M11.4006 11.7744L9.58762 16.76C9.54377 16.8805 9.46389 16.9847 9.35881 17.0583C9.25372 17.1319 9.12854 17.1714 9.00024 17.1714C8.87195 17.1714 8.74676 17.1319 8.64168 17.0583C8.5366 16.9847 8.45672 16.8805 8.41287 16.76L6.59992 11.7744C6.56871 11.6885 6.51907 11.6106 6.45449 11.546C6.38991 11.4814 6.31197 11.4318 6.22614 11.4006L1.24051 9.58762C1.11994 9.54377 1.01579 9.46389 0.942185 9.35881C0.868583 9.25372 0.829102 9.12854 0.829102 9.00024C0.829102 8.87195 0.868583 8.74676 0.942185 8.64168C1.01579 8.5366 1.11994 8.45672 1.24051 8.41287L6.22614 6.59992C6.31197 6.56871 6.38991 6.51907 6.45449 6.45449C6.51907 6.38991 6.56871 6.31197 6.59992 6.22614L8.41287 1.24051C8.45672 1.11994 8.5366 1.01579 8.64168 0.942185C8.74676 0.868583 8.87195 0.829102 9.00024 0.829102C9.12854 0.829102 9.25372 0.868583 9.35881 0.942185C9.46389 1.01579 9.54377 1.11994 9.58762 1.24051L11.4006 6.22614C11.4318 6.31197 11.4814 6.38991 11.546 6.45449C11.6106 6.51907 11.6885 6.56871 11.7744 6.59992L16.76 8.41287C16.8805 8.45672 16.9847 8.5366 17.0583 8.64168C17.1319 8.74676 17.1714 8.87195 17.1714 9.00024C17.1714 9.12854 17.1319 9.25372 17.0583 9.35881C16.9847 9.46389 16.8805 9.54377 16.76 9.58762L11.7744 11.4006C11.6885 11.4318 11.6106 11.4814 11.546 11.546C11.4814 11.6106 11.4318 11.6885 11.4006 11.7744Z" stroke="#5D6465" stroke-width="1.5" stroke-linecap="round" stroke-linejoin="round"/>
</svg>
