<svg width="40" height="40" viewBox="0 0 40 40" fill="none" xmlns="http://www.w3.org/2000/svg">
<circle cx="20" cy="20" r="20" fill="#F5F5F5"/>
<path d="M23.9547 17.3128C22.8321 17.2192 21.7095 17.874 21.1482 18.8095V18.9031V17.4998H18.0611C18.0611 18.3418 18.0611 26.8547 18.0611 26.8547H21.1482V21.616C21.1482 21.3353 21.1482 21.1482 21.2418 20.8676C21.4289 20.2128 22.0837 19.745 22.8321 19.745C23.9547 19.745 24.4224 20.5869 24.4224 21.8031V26.7611H27.5095V21.5224C27.5095 18.6224 26.0128 17.3128 23.9547 17.3128Z" fill="#05473C"/>
<path d="M16.2837 17.4998H13.1966V26.8547H16.2837V17.4998Z" fill="#05473C"/>
<path d="M14.7863 13.0089C13.9444 12.9154 13.1025 13.5702 13.0089 14.4121C12.9154 15.2541 13.5702 16.096 14.4121 16.1896C14.5057 16.1896 14.5992 16.1896 14.7863 16.1896C15.6283 16.2831 16.4702 15.6283 16.5638 14.7863C16.6573 13.9444 16.0025 13.1025 15.1605 13.0089C15.067 13.0089 14.8799 13.0089 14.7863 13.0089Z" fill="#05473C"/>
</svg>
