<svg width="40" height="40" viewBox="0 0 40 40" fill="none" xmlns="http://www.w3.org/2000/svg">
<circle cx="20" cy="20" r="20" fill="#F5F5F5"/>
<path d="M17.3477 22.651L22.651 17.3477" stroke="#05473C" stroke-width="2" stroke-linejoin="round"/>
<path d="M21.3258 23.9771L19.116 26.1868C18.4127 26.8899 17.459 27.2848 16.4645 27.2847C15.4701 27.2846 14.5164 26.8896 13.8132 26.1864C13.11 25.4832 12.7149 24.5295 12.7148 23.5351C12.7148 22.5406 13.1097 21.5868 13.8127 20.8835L16.0224 18.6738" stroke="#05473C" stroke-width="2" stroke-linejoin="round"/>
<path d="M23.9791 21.3253L26.1888 19.1156C26.8919 18.4122 27.2868 17.4585 27.2867 16.464C27.2866 15.4696 26.8915 14.5159 26.1883 13.8127C25.4852 13.1095 24.5315 12.7144 23.537 12.7144C22.5426 12.7143 21.5888 13.1092 20.8855 13.8123L18.6758 16.022" stroke="#05473C" stroke-width="2" stroke-linejoin="round"/>
</svg>
