<svg width="40" height="40" viewBox="0 0 40 40" fill="none" xmlns="http://www.w3.org/2000/svg">
<circle cx="20" cy="20" r="20" fill="#F5F5F5"/>
<path d="M29.2 15.5216C28.5912 15.7921 27.9486 15.9612 27.2891 16.0458C27.9825 15.6399 28.5067 14.9973 28.7603 14.2364C28.1008 14.6253 27.3906 14.8959 26.6466 15.0481C25.3952 13.7122 23.2983 13.6445 21.9455 14.8959C21.2691 15.5216 20.8971 16.4009 20.8971 17.314C20.8971 17.5677 20.9309 17.8213 20.9816 18.075C18.3098 17.9228 15.8071 16.6715 14.1161 14.5915C13.2198 16.0965 13.6426 18.0412 15.0969 19.022C14.5727 19.0051 14.0484 18.8698 13.5919 18.6161C13.5919 20.2057 14.7079 21.5585 16.2637 21.8798C15.7733 22.0151 15.266 22.032 14.7587 21.9305C15.1983 23.3172 16.4666 24.2641 17.9209 24.2641C16.7372 25.1942 15.2829 25.6846 13.7948 25.6846C13.5242 25.7015 13.2706 25.7015 13 25.6846C14.5219 26.6654 16.2975 27.1727 18.1069 27.1727C23.2983 27.2065 27.5259 23.0297 27.5597 17.8383C27.5597 17.7706 27.5597 17.7199 27.5597 17.6522C27.5597 17.5001 27.5597 17.3648 27.5597 17.2126C28.2023 16.7729 28.7603 16.198 29.2 15.5216Z" fill="#05473C"/>
</svg>
